<?xml version="1.0" encoding="utf-8"?>
<!--

     [2012] - [2017] Codenvy, S.A.
     All Rights Reserved.

    NOTICE:  All information contained herein is, and remains
    the property of Codenvy S.A. and its suppliers,
    if any.  The intellectual and technical concepts contained
    herein are proprietary to Codenvy S.A.
    and its suppliers and may be covered by U.S. and Foreign Patents,
    patents in process, and are protected by trade secret or copyright law.
    Dissemination of this information or reproduction of this material
    is strictly forbidden unless prior written permission is obtained
    from Codenvy S.A..

-->
<!DOCTYPE svg PUBLIC "-//W3C//DTD SVG 1.1//EN" "http://www.w3.org/Graphics/SVG/1.1/DTD/svg11.dtd">
<svg version="1.1" id="Layer_1" xmlns="http://www.w3.org/2000/svg" xmlns:xlink="http://www.w3.org/1999/xlink" x="0px" y="0px"
	 width="270px" height="70.926px" viewBox="0 0 427.117 70.926" enable-background="new 0 0 427.117 70.926" fill="#4E4F86">
<g>
	<g>
		<path d="M188.835,20.025c-0.393-1.519-0.932-2.917-1.618-4.193c-0.687-1.274-1.57-2.378-2.648-3.31
			c-1.079-0.931-2.342-1.655-3.788-2.17c-1.447-0.515-3.126-0.772-5.039-0.772c-2.795,0-5.211,0.564-7.246,1.692
			c-2.035,1.128-3.69,2.636-4.965,4.524c-1.276,1.888-2.22,4.034-2.832,6.436c-0.614,2.403-0.92,4.855-0.92,7.355
			c0,2.501,0.306,4.954,0.92,7.356c0.612,2.403,1.556,4.549,2.832,6.436c1.274,1.888,2.93,3.396,4.965,4.523
			c2.034,1.129,4.45,1.692,7.246,1.692c2.059,0,3.873-0.355,5.443-1.066c1.569-0.71,2.917-1.692,4.046-2.942
			c1.127-1.25,2.01-2.709,2.648-4.376c0.637-1.666,1.053-3.458,1.25-5.37h8.973c-0.196,3.139-0.871,6.008-2.023,8.606
			c-1.152,2.6-2.71,4.843-4.671,6.73c-1.962,1.888-4.266,3.347-6.914,4.376c-2.648,1.03-5.566,1.544-8.753,1.544
			c-3.924,0-7.442-0.724-10.556-2.17c-3.114-1.445-5.749-3.42-7.907-5.921c-2.158-2.501-3.814-5.418-4.965-8.753
			c-1.153-3.334-1.729-6.89-1.729-10.666c0-3.726,0.576-7.257,1.729-10.592c1.151-3.334,2.807-6.252,4.965-8.753
			c2.158-2.501,4.793-4.487,7.907-5.958c3.114-1.471,6.632-2.207,10.556-2.207c2.942,0,5.712,0.404,8.311,1.214
			c2.599,0.809,4.892,1.986,6.878,3.531c1.986,1.544,3.591,3.42,4.818,5.627c1.225,2.207,1.986,4.733,2.28,7.576H188.835z"/>
		<path d="M219.712,56.877c-3.041,0-5.75-0.504-8.128-1.508c-2.379-1.004-4.39-2.39-6.032-4.156
			c-1.644-1.765-2.894-3.873-3.752-6.326c-0.858-2.451-1.287-5.149-1.287-8.091c0-2.893,0.429-5.565,1.287-8.017
			c0.858-2.452,2.108-4.56,3.752-6.326c1.642-1.766,3.653-3.15,6.032-4.156c2.377-1.004,5.087-1.508,8.128-1.508
			c3.04,0,5.749,0.504,8.128,1.508c2.378,1.006,4.388,2.39,6.032,4.156c1.642,1.766,2.893,3.874,3.751,6.326
			c0.858,2.452,1.288,5.125,1.288,8.017c0,2.942-0.43,5.64-1.288,8.091c-0.858,2.453-2.109,4.561-3.751,6.326
			c-1.644,1.766-3.654,3.152-6.032,4.156C225.461,56.373,222.752,56.877,219.712,56.877z M219.712,50.256
			c1.863,0,3.482-0.392,4.855-1.177c1.372-0.784,2.501-1.814,3.383-3.09c0.882-1.274,1.532-2.709,1.95-4.303
			c0.416-1.593,0.625-3.224,0.625-4.892c0-1.618-0.209-3.236-0.625-4.855c-0.417-1.618-1.067-3.052-1.95-4.303
			c-0.882-1.251-2.011-2.268-3.383-3.053c-1.374-0.783-2.992-1.177-4.855-1.177c-1.864,0-3.482,0.393-4.855,1.177
			c-1.374,0.785-2.501,1.802-3.384,3.053c-0.882,1.25-1.533,2.685-1.949,4.303c-0.417,1.618-0.625,3.236-0.625,4.855
			c0,1.668,0.208,3.298,0.625,4.892c0.416,1.594,1.066,3.028,1.949,4.303c0.883,1.276,2.01,2.306,3.384,3.09
			C216.23,49.864,217.848,50.256,219.712,50.256z"/>
		<path d="M278.235,55.847h-7.944v-5.149h-0.147c-1.129,2.207-2.771,3.788-4.928,4.744
			c-2.158,0.956-4.438,1.434-6.841,1.434c-2.992,0-5.603-0.528-7.834-1.582c-2.232-1.054-4.082-2.488-5.553-4.303
			c-1.471-1.814-2.574-3.96-3.31-6.436c-0.736-2.476-1.104-5.136-1.104-7.981c0-3.432,0.466-6.4,1.398-8.9
			c0.931-2.501,2.17-4.56,3.714-6.179c1.544-1.618,3.31-2.807,5.296-3.568c1.986-0.76,4.009-1.14,6.068-1.14
			c1.177,0,2.378,0.11,3.604,0.331c1.225,0.22,2.402,0.577,3.531,1.066c1.128,0.49,2.17,1.116,3.126,1.876
			c0.956,0.761,1.753,1.655,2.39,2.685h0.147V3.327h8.385V55.847z M248.96,37.237c0,1.618,0.207,3.212,0.625,4.781
			c0.416,1.57,1.054,2.968,1.912,4.193c0.858,1.227,1.95,2.207,3.274,2.942c1.324,0.736,2.893,1.104,4.707,1.104
			c1.863,0,3.469-0.392,4.818-1.177c1.348-0.784,2.452-1.814,3.31-3.09c0.858-1.274,1.496-2.709,1.912-4.303
			c0.416-1.593,0.626-3.224,0.626-4.892c0-4.217-0.945-7.503-2.832-9.857c-1.888-2.354-4.45-3.531-7.687-3.531
			c-1.962,0-3.617,0.404-4.965,1.214c-1.349,0.809-2.453,1.864-3.31,3.163c-0.859,1.3-1.471,2.771-1.839,4.414
			C249.143,33.842,248.96,35.521,248.96,37.237z"/>
		<path d="M288.145,39.002c0,1.471,0.207,2.894,0.625,4.266c0.416,1.374,1.042,2.575,1.876,3.604
			c0.833,1.03,1.887,1.852,3.163,2.464c1.274,0.614,2.795,0.92,4.56,0.92c2.452,0,4.425-0.526,5.922-1.582
			c1.495-1.053,2.611-2.635,3.347-4.744h7.944c-0.442,2.06-1.202,3.898-2.28,5.517c-1.079,1.618-2.379,2.979-3.898,4.082
			c-1.521,1.103-3.225,1.938-5.112,2.501c-1.888,0.563-3.862,0.846-5.922,0.846c-2.991,0-5.639-0.491-7.944-1.471
			c-2.306-0.98-4.255-2.353-5.848-4.119c-1.594-1.766-2.796-3.873-3.604-6.326c-0.809-2.451-1.214-5.149-1.214-8.091
			c0-2.696,0.429-5.26,1.288-7.687c0.857-2.428,2.083-4.56,3.677-6.4c1.593-1.839,3.518-3.297,5.774-4.377
			c2.255-1.078,4.806-1.618,7.65-1.618c2.991,0,5.675,0.625,8.054,1.876c2.378,1.25,4.351,2.906,5.921,4.965
			c1.569,2.06,2.709,4.426,3.42,7.098c0.71,2.674,0.894,5.432,0.552,8.275H288.145z M307.711,33.485
			c-0.099-1.324-0.38-2.599-0.846-3.825c-0.467-1.225-1.104-2.292-1.912-3.2c-0.809-0.907-1.791-1.642-2.942-2.207
			c-1.153-0.564-2.44-0.846-3.862-0.846c-1.471,0-2.808,0.258-4.009,0.772c-1.202,0.515-2.232,1.226-3.09,2.133
			c-0.858,0.908-1.544,1.974-2.06,3.199c-0.515,1.227-0.797,2.551-0.845,3.972H307.711z"/>
		<path d="M318.405,17.818h7.944v5.59l0.147,0.147c1.274-2.108,2.942-3.763,5.002-4.965
			c2.059-1.201,4.339-1.802,6.841-1.802c4.167,0,7.453,1.079,9.857,3.236c2.402,2.159,3.604,5.395,3.604,9.71v26.112h-8.386V31.941
			c-0.098-2.99-0.736-5.16-1.912-6.51c-1.177-1.348-3.016-2.023-5.517-2.023c-1.423,0-2.698,0.258-3.825,0.772
			c-1.129,0.515-2.085,1.226-2.869,2.133c-0.785,0.908-1.397,1.974-1.839,3.199c-0.442,1.227-0.662,2.527-0.662,3.898v22.435h-8.385
			V17.818z"/>
		<path d="M350.965,17.818h9.121l9.636,29.202h0.147l9.268-29.202h8.679l-13.608,38.029h-9.415L350.965,17.818z"/>
		<path d="M389.456,17.818h9.195l9.93,28.392h0.147l9.635-28.392h8.753l-14.784,40.088
			c-0.687,1.716-1.361,3.358-2.023,4.928c-0.662,1.569-1.471,2.953-2.427,4.155c-0.956,1.201-2.146,2.158-3.568,2.869
			c-1.423,0.71-3.236,1.066-5.443,1.066c-1.962,0-3.899-0.147-5.811-0.442v-7.061c0.686,0.098,1.348,0.208,1.986,0.331
			c0.637,0.122,1.299,0.184,1.986,0.184c0.98,0,1.79-0.123,2.428-0.368c0.637-0.246,1.164-0.601,1.581-1.066
			c0.416-0.466,0.773-1.018,1.067-1.655c0.294-0.638,0.563-1.374,0.809-2.207l0.956-2.942L389.456,17.818z"/>
	</g>
	<path d="M6.03,40.01c0-7.236-6.03-7.732-6.03-7.732v-6.101c0,0,6.03-0.496,6.03-7.874v-5.959
		C6.03,1.135,14.117,0,17.522,0c0.993,0,1.632,0.071,1.632,0.071V5.32c0,0-0.426,0-0.993,0c-1.774,0-6.101,0.638-6.101,7.449v7.307
		c0,7.023-5.746,9.009-5.746,9.009v0.142c0,0,5.746,1.702,5.746,9.009v8.158c0,6.81,4.327,7.449,6.101,7.449
		c0.567,0,0.993,0,0.993,0v5.249c0,0-0.638,0.142-1.632,0.142c-3.405,0-11.492-1.135-11.492-12.414V40.01z"/>
	<path d="M110.406,53.843c1.773,0,6.101-0.638,6.101-7.449v-8.158c0-7.307,5.746-9.009,5.746-9.009v-0.142
		c0,0-5.746-1.986-5.746-9.009v-7.307c0-6.81-4.328-7.449-6.101-7.449c-0.638,0-0.993,0-0.993,0V0.071c0,0,0.638-0.071,1.632-0.071
		c3.405,0,11.492,1.135,11.492,12.343v5.959c0,7.378,6.03,7.874,6.03,7.874v6.101c0,0-6.03,0.497-6.03,7.732v6.81
		c0,11.279-8.087,12.414-11.492,12.414c-0.993,0-1.632-0.142-1.632-0.142v-5.249C109.413,53.843,109.767,53.843,110.406,53.843z"/>
	<path d="M82.305,51.767h-33.96c-9.816,0-17.802-7.986-17.802-17.802c0-9.281,7.139-16.926,16.214-17.732
		c2.351-5.814,7.999-9.707,14.437-9.707c5.72,0,10.885,3.084,13.614,7.995c4.124,0.647,7.789,2.909,10.225,6.321
		c3.32,0.586,6.361,2.235,8.685,4.733c2.689,2.891,4.17,6.658,4.17,10.608C97.889,44.776,90.898,51.767,82.305,51.767z
		 M48.345,22.091c-6.548,0-11.874,5.327-11.874,11.874S41.797,45.84,48.345,45.84h33.96c5.325,0,9.656-4.332,9.656-9.656
		c0-5.01-3.909-9.237-8.898-9.623l-1.556-0.12l-0.781-1.351c-1.671-2.89-4.653-4.693-7.977-4.823l-1.899-0.075l-0.724-1.757
		c-1.498-3.633-5.003-5.98-8.93-5.98c-4.477,0-8.336,3.036-9.384,7.383l-0.569,2.36l-2.426-0.093
		C48.659,22.097,48.503,22.091,48.345,22.091z"/>
</g>
</svg>
