<?xml version="1.0" encoding="UTF-8"?>
<!--

     2012-2017 Codenvy, S.A.
     All Rights Reserved.

    NOTICE:  All information contained herein is, and remains
    the property of Codenvy S.A. and its suppliers,
    if any.  The intellectual and technical concepts contained
    herein are proprietary to Codenvy S.A.
    and its suppliers and may be covered by U.S. and Foreign Patents,
    patents in process, and are protected by trade secret or copyright law.
    Dissemination of this information or reproduction of this material
    is strictly forbidden unless prior written permission is obtained
    from Codenvy S.A..

-->
<svg
   xmlns:dc="http://purl.org/dc/elements/1.1/"
   xmlns:cc="http://creativecommons.org/ns#"
   xmlns:rdf="http://www.w3.org/1999/02/22-rdf-syntax-ns#"
   xmlns:svg="http://www.w3.org/2000/svg"
   xmlns="http://www.w3.org/2000/svg"
   version="1.1"
   width="100%"
   height="100%"
   viewBox="0 -0.5 277 69"
   style="fill:#00305b">
  <g
     transform="translate(-150.584,-1.9240019)"
     id="g3181">
    <path class="outer-fill" d="m 188.835,20.025 c -0.393,-1.519 -0.932,-2.917 -1.618,-4.193 -0.687,-1.274 -1.57,-2.378 -2.648,-3.31 -1.079,-0.931 -2.342,-1.655 -3.788,-2.17 -1.447,-0.515 -3.126,-0.772 -5.039,-0.772 -2.795,0 -5.211,0.564 -7.246,1.692 -2.035,1.128 -3.69,2.636 -4.965,4.524 -1.276,1.888 -2.22,4.034 -2.832,6.436 -0.614,2.403 -0.92,4.855 -0.92,7.355 0,2.501 0.306,4.954 0.92,7.356 0.612,2.403 1.556,4.549 2.832,6.436 1.274,1.888 2.93,3.396 4.965,4.523 2.034,1.129 4.45,1.692 7.246,1.692 2.059,0 3.873,-0.355 5.443,-1.066 1.569,-0.71 2.917,-1.692 4.046,-2.942 1.127,-1.25 2.01,-2.709 2.648,-4.376 0.637,-1.666 1.053,-3.458 1.25,-5.37 h 8.973 c -0.196,3.139 -0.871,6.008 -2.023,8.606 -1.152,2.6 -2.71,4.843 -4.671,6.73 -1.962,1.888 -4.266,3.347 -6.914,4.376 -2.648,1.03 -5.566,1.544 -8.753,1.544 -3.924,0 -7.442,-0.724 -10.556,-2.17 -3.114,-1.445 -5.749,-3.42 -7.907,-5.921 -2.158,-2.501 -3.814,-5.418 -4.965,-8.753 -1.153,-3.334 -1.729,-6.89 -1.729,-10.666 0,-3.726 0.576,-7.257 1.729,-10.592 1.151,-3.334 2.807,-6.252 4.965,-8.753 2.158,-2.501 4.793,-4.487 7.907,-5.958 3.114,-1.471 6.632,-2.207 10.556,-2.207 2.942,0 5.712,0.404 8.311,1.214 2.599,0.809 4.892,1.986 6.878,3.531 1.986,1.544 3.591,3.42 4.818,5.627 1.225,2.207 1.986,4.733 2.28,7.576 h -9.193 z" id="path3183" />
    <path class="outer-fill" d="m 219.712,56.877 c -3.041,0 -5.75,-0.504 -8.128,-1.508 -2.379,-1.004 -4.39,-2.39 -6.032,-4.156 -1.644,-1.765 -2.894,-3.873 -3.752,-6.326 -0.858,-2.451 -1.287,-5.149 -1.287,-8.091 0,-2.893 0.429,-5.565 1.287,-8.017 0.858,-2.452 2.108,-4.56 3.752,-6.326 1.642,-1.766 3.653,-3.15 6.032,-4.156 2.377,-1.004 5.087,-1.508 8.128,-1.508 3.04,0 5.749,0.504 8.128,1.508 2.378,1.006 4.388,2.39 6.032,4.156 1.642,1.766 2.893,3.874 3.751,6.326 0.858,2.452 1.288,5.125 1.288,8.017 0,2.942 -0.43,5.64 -1.288,8.091 -0.858,2.453 -2.109,4.561 -3.751,6.326 -1.644,1.766 -3.654,3.152 -6.032,4.156 -2.379,1.004 -5.088,1.508 -8.128,1.508 z m 0,-6.621 c 1.863,0 3.482,-0.392 4.855,-1.177 1.372,-0.784 2.501,-1.814 3.383,-3.09 0.882,-1.274 1.532,-2.709 1.95,-4.303 0.416,-1.593 0.625,-3.224 0.625,-4.892 0,-1.618 -0.209,-3.236 -0.625,-4.855 -0.417,-1.618 -1.067,-3.052 -1.95,-4.303 -0.882,-1.251 -2.011,-2.268 -3.383,-3.053 -1.374,-0.783 -2.992,-1.177 -4.855,-1.177 -1.864,0 -3.482,0.393 -4.855,1.177 -1.374,0.785 -2.501,1.802 -3.384,3.053 -0.882,1.25 -1.533,2.685 -1.949,4.303 -0.417,1.618 -0.625,3.236 -0.625,4.855 0,1.668 0.208,3.298 0.625,4.892 0.416,1.594 1.066,3.028 1.949,4.303 0.883,1.276 2.01,2.306 3.384,3.09 1.373,0.785 2.991,1.177 4.855,1.177 z" id="path3185" />
    <path class="outer-fill" d="m 278.235,55.847 h -7.944 v -5.149 h -0.147 c -1.129,2.207 -2.771,3.788 -4.928,4.744 -2.158,0.956 -4.438,1.434 -6.841,1.434 -2.992,0 -5.603,-0.528 -7.834,-1.582 -2.232,-1.054 -4.082,-2.488 -5.553,-4.303 -1.471,-1.814 -2.574,-3.96 -3.31,-6.436 -0.736,-2.476 -1.104,-5.136 -1.104,-7.981 0,-3.432 0.466,-6.4 1.398,-8.9 0.931,-2.501 2.17,-4.56 3.714,-6.179 1.544,-1.618 3.31,-2.807 5.296,-3.568 1.986,-0.76 4.009,-1.14 6.068,-1.14 1.177,0 2.378,0.11 3.604,0.331 1.225,0.22 2.402,0.577 3.531,1.066 1.128,0.49 2.17,1.116 3.126,1.876 0.956,0.761 1.753,1.655 2.39,2.685 h 0.147 V 3.327 h 8.385 v 52.52 z M 248.96,37.237 c 0,1.618 0.207,3.212 0.625,4.781 0.416,1.57 1.054,2.968 1.912,4.193 0.858,1.227 1.95,2.207 3.274,2.942 1.324,0.736 2.893,1.104 4.707,1.104 1.863,0 3.469,-0.392 4.818,-1.177 1.348,-0.784 2.452,-1.814 3.31,-3.09 0.858,-1.274 1.496,-2.709 1.912,-4.303 0.416,-1.593 0.626,-3.224 0.626,-4.892 0,-4.217 -0.945,-7.503 -2.832,-9.857 -1.888,-2.354 -4.45,-3.531 -7.687,-3.531 -1.962,0 -3.617,0.404 -4.965,1.214 -1.349,0.809 -2.453,1.864 -3.31,3.163 -0.859,1.3 -1.471,2.771 -1.839,4.414 -0.368,1.644 -0.551,3.323 -0.551,5.039 z" id="path3187" />
    <path class="outer-fill" d="m 288.145,39.002 c 0,1.471 0.207,2.894 0.625,4.266 0.416,1.374 1.042,2.575 1.876,3.604 0.833,1.03 1.887,1.852 3.163,2.464 1.274,0.614 2.795,0.92 4.56,0.92 2.452,0 4.425,-0.526 5.922,-1.582 1.495,-1.053 2.611,-2.635 3.347,-4.744 h 7.944 c -0.442,2.06 -1.202,3.898 -2.28,5.517 -1.079,1.618 -2.379,2.979 -3.898,4.082 -1.521,1.103 -3.225,1.938 -5.112,2.501 -1.888,0.563 -3.862,0.846 -5.922,0.846 -2.991,0 -5.639,-0.491 -7.944,-1.471 -2.306,-0.98 -4.255,-2.353 -5.848,-4.119 -1.594,-1.766 -2.796,-3.873 -3.604,-6.326 -0.809,-2.451 -1.214,-5.149 -1.214,-8.091 0,-2.696 0.429,-5.26 1.288,-7.687 0.857,-2.428 2.083,-4.56 3.677,-6.4 1.593,-1.839 3.518,-3.297 5.774,-4.377 2.255,-1.078 4.806,-1.618 7.65,-1.618 2.991,0 5.675,0.625 8.054,1.876 2.378,1.25 4.351,2.906 5.921,4.965 1.569,2.06 2.709,4.426 3.42,7.098 0.71,2.674 0.894,5.432 0.552,8.275 h -27.951 z m 19.566,-5.517 c -0.099,-1.324 -0.38,-2.599 -0.846,-3.825 -0.467,-1.225 -1.104,-2.292 -1.912,-3.2 -0.809,-0.907 -1.791,-1.642 -2.942,-2.207 -1.153,-0.564 -2.44,-0.846 -3.862,-0.846 -1.471,0 -2.808,0.258 -4.009,0.772 -1.202,0.515 -2.232,1.226 -3.09,2.133 -0.858,0.908 -1.544,1.974 -2.06,3.199 -0.515,1.227 -0.797,2.551 -0.845,3.972 h 19.566 z" id="path3189" />
    <path class="outer-fill" d="m 318.405,17.818 h 7.944 v 5.59 l 0.147,0.147 c 1.274,-2.108 2.942,-3.763 5.002,-4.965 2.059,-1.201 4.339,-1.802 6.841,-1.802 4.167,0 7.453,1.079 9.857,3.236 2.402,2.159 3.604,5.395 3.604,9.71 v 26.112 h -8.386 V 31.941 c -0.098,-2.99 -0.736,-5.16 -1.912,-6.51 -1.177,-1.348 -3.016,-2.023 -5.517,-2.023 -1.423,0 -2.698,0.258 -3.825,0.772 -1.129,0.515 -2.085,1.226 -2.869,2.133 -0.785,0.908 -1.397,1.974 -1.839,3.199 -0.442,1.227 -0.662,2.527 -0.662,3.898 v 22.435 h -8.385 V 17.818 z" id="path3191" />
    <path class="outer-fill" d="m 350.965,17.818 h 9.121 l 9.636,29.202 h 0.147 l 9.268,-29.202 h 8.679 l -13.608,38.029 h -9.415 L 350.965,17.818 z" id="path3193" />
    <path class="outer-fill" d="m 389.456,17.818 h 9.195 l 9.93,28.392 h 0.147 l 9.635,-28.392 h 8.753 l -14.784,40.088 c -0.687,1.716 -1.361,3.358 -2.023,4.928 -0.662,1.569 -1.471,2.953 -2.427,4.155 -0.956,1.201 -2.146,2.158 -3.568,2.869 -1.423,0.71 -3.236,1.066 -5.443,1.066 -1.962,0 -3.899,-0.147 -5.811,-0.442 v -7.061 c 0.686,0.098 1.348,0.208 1.986,0.331 0.637,0.122 1.299,0.184 1.986,0.184 0.98,0 1.79,-0.123 2.428,-0.368 0.637,-0.246 1.164,-0.601 1.581,-1.066 0.416,-0.466 0.773,-1.018 1.067,-1.655 0.294,-0.638 0.563,-1.374 0.809,-2.207 l 0.956,-2.942 -14.417,-37.88 z" id="path3195" />
  </g>
</svg>
