<?xml version="1.0" encoding="utf-8"?>
<!--

    Copyright (c) 2012-2017 Red Hat, Inc.
    All rights reserved. This program and the accompanying materials
    are made available under the terms of the Eclipse Public License v1.0
    which accompanies this distribution, and is available at
    http://www.eclipse.org/legal/epl-v10.html

    Contributors:
      Red Hat, Inc. - initial API and implementation

-->
<!-- Generator: Adobe Illustrator 21.0.0, SVG Export Plug-In . SVG Version: 6.00 Build 0)  -->
<svg version="1.1" id="Layer_1" xmlns="http://www.w3.org/2000/svg" xmlns:xlink="http://www.w3.org/1999/xlink" x="0px" y="0px"
	 viewBox="0 0 300 300"
	 style="enable-background:new 0 0 300 300;"
	 xml:space="preserve"
     width="100%"
	 height="100%">
<style type="text/css">
	.st0{fill:#FFFFFF;}
</style>
<g>
	<polygon class="st0" points="235.5,94.8 206.3,124.1 230.6,148.4 289.1,148.4 	"/>
	<polygon class="st0" points="153,226 128.7,201.7 99.4,230.9 153,284.5 153,284.5 153,226 	"/>
	<polygon class="st0" points="230.6,148.4 153,226 153,284.5 289.1,148.4 	"/>
	<polygon class="st0" points="70.5,202 99.7,172.8 75.4,148.4 16.9,148.4 	"/>
	<polygon class="st0" points="153,70.8 177.3,95.2 206.6,65.9 153,12.3 153,12.3 153,70.8 	"/>
	<polygon class="st0" points="75.4,148.4 153,70.8 153,12.3 16.9,148.4 	"/>
</g>
</svg>
