<?xml version="1.0" encoding="UTF-8" standalone="no"?>
<!--

    Copyright (c) 2012-2017 Codenvy, S.A.
    All rights reserved. This program and the accompanying materials
    are made available under the terms of the Eclipse Public License v1.0
    which accompanies this distribution, and is available at
    http://www.eclipse.org/legal/epl-v10.html

    Contributors:
      Codenvy, S.A. - initial API and implementation

-->
<!-- Created with Inkscape (http://www.inkscape.org/) -->

<svg
   xmlns:dc="http://purl.org/dc/elements/1.1/"
   xmlns:cc="http://creativecommons.org/ns#"
   xmlns:rdf="http://www.w3.org/1999/02/22-rdf-syntax-ns#"
   xmlns:svg="http://www.w3.org/2000/svg"
   xmlns="http://www.w3.org/2000/svg"
   version="1.1"
   width="100%"
   height="100%"
   viewBox="0 0 697 182"
   xml:space="preserve"><metadata
     id="metadata8"></metadata><defs
     id="defs6" /><g
     id="g10"
     transform="matrix(1.25,0,0,-1.25,0,181.3625)"><g
       id="g12"
       transform="scale(0.1,0.1)"><path
         d="m 480.879,555.563 c 3.406,4.089 6.82,8.867 10.234,12.957 6.825,8.878 14.328,14.335 23.879,6.14 4.781,-4.09 54.594,-51.851 115.324,-51.851 55.274,0 91.442,34.793 91.442,75.058 0,47.078 -40.949,75.059 -119.422,107.813 -75.059,32.754 -120.098,63.465 -120.098,141.258 0,46.398 36.852,121.457 145.348,121.457 66.875,0 116.684,-34.797 116.684,-34.797 4.097,-2.051 12.285,-10.235 4.097,-23.203 -2.73,-4.09 -5.457,-8.868 -8.187,-12.969 -6.145,-9.551 -12.965,-12.285 -23.883,-6.141 -4.781,2.735 -47.77,31.395 -89.395,31.395 -72.328,0 -94.164,-46.407 -94.164,-75.067 0,-45.715 34.801,-72.328 92.117,-96.211 92.122,-37.531 151.493,-72.336 151.493,-151.484 0,-70.969 -67.559,-122.832 -147.395,-122.832 -80.523,0 -135.113,47.09 -143.984,55.273 -5.457,4.774 -12.281,10.235 -4.09,23.204"
         style="fill:#11465d;fill-opacity:1;fill-rule:nonzero;stroke:none"
         id="path14" /><path
         d="m 930.566,948.609 c 0,6.825 6.137,12.957 12.961,12.957 l 27.297,0 c 6.821,0 12.965,-6.132 12.965,-12.957 l 0,-451.73 c 0,-6.824 -6.144,-12.969 -12.965,-12.969 l -27.297,0 c -6.824,0 -12.961,6.145 -12.961,12.969 l 0,451.73"
         style="fill:#11465d;fill-opacity:1;fill-rule:nonzero;stroke:none"
         id="path16" /><path
         d="m 1178.27,948.609 c 0,6.825 5.46,12.957 12.96,12.957 l 26.62,0 c 6.82,0 12.96,-6.132 12.96,-12.957 l 0,-418.976 196.52,0 c 7.51,0 12.97,-6.141 12.97,-12.969 l 0,-19.785 c 0,-6.824 -5.46,-12.969 -12.97,-12.969 l -236.1,0 c -7.5,0 -12.96,6.145 -12.96,12.969 l 0,451.73"
         style="fill:#11465d;fill-opacity:1;fill-rule:nonzero;stroke:none"
         id="path18" /><path
         d="m 1568.59,948.609 c 0,6.825 5.46,12.957 12.97,12.957 l 268.85,0 c 7.51,0 12.97,-6.132 12.97,-12.957 l 0,-19.796 c 0,-6.817 -5.46,-12.958 -12.97,-12.958 l -229.28,0 0,-166.503 195.84,0 c 6.83,0 12.97,-6.145 12.97,-12.961 l 0,-19.793 c 0,-7.5 -6.14,-12.961 -12.97,-12.961 l -195.84,0 0,-174.004 229.28,0 c 7.51,0 12.97,-6.141 12.97,-12.969 l 0,-19.785 c 0,-6.824 -5.46,-12.969 -12.97,-12.969 l -268.85,0 c -7.51,0 -12.97,6.145 -12.97,12.969 l 0,451.73"
         style="fill:#11465d;fill-opacity:1;fill-rule:nonzero;stroke:none"
         id="path20" /><path
         d="m 2124.05,728.883 -133.07,213.582 c -5.45,8.867 0,19.101 11.61,19.101 l 36.84,0 c 4.78,0 9.56,-2.722 11.6,-6.132 l 105.09,-180.829 0.68,0 106.45,180.829 c 2.05,3.41 6.14,6.132 11.6,6.132 l 36.85,0 c 11.6,0 17.06,-10.234 11.6,-19.101 L 2190.24,728.883 2328.07,503.012 c 5.46,-9.551 0,-19.102 -11.59,-19.102 l -31.39,0 c -5.46,0 -10.24,3.41 -11.61,6.145 l -116.68,193.113 -0.68,0 -115.32,-193.113 c -2.05,-3.41 -6.14,-6.145 -11.6,-6.145 l -31.39,0 c -12.28,0 -17.74,10.235 -12.28,19.102 l 138.52,225.871"
         style="fill:#11465d;fill-opacity:1;fill-rule:nonzero;stroke:none"
         id="path22" /><path
         d="m 2480.94,948.609 c 0,6.825 6.13,12.957 12.96,12.957 l 27.29,0 c 6.83,0 12.97,-6.132 12.97,-12.957 l 0,-451.73 c 0,-6.824 -6.14,-12.969 -12.97,-12.969 l -27.29,0 c -6.83,0 -12.96,6.145 -12.96,12.969 l 0,451.73"
         style="fill:#11465d;fill-opacity:1;fill-rule:nonzero;stroke:none"
         id="path24" /><path
         d="m 2940.17,968.395 c 68.93,0 118.73,-23.879 165.14,-63.457 5.46,-5.461 6.14,-13.653 0.68,-19.114 l -18.42,-18.418 c -5.46,-6.828 -10.92,-6.14 -17.75,0.684 -35.48,30.703 -83.93,51.172 -130.33,51.172 -107.81,0 -190.38,-90.75 -190.38,-196.524 0,-105.078 82.57,-195.84 190.38,-195.84 59.37,0 94.17,23.887 130.33,51.184 6.83,5.457 12.29,4.773 16.38,2.039 l 20.47,-18.418 c 5.46,-4.101 4.1,-13.652 -0.68,-18.426 -46.4,-45.039 -105.08,-66.191 -165.82,-66.191 -136.47,0 -246.33,108.496 -246.33,244.969 0,136.476 109.86,246.34 246.33,246.34"
         style="fill:#11465d;fill-opacity:1;fill-rule:nonzero;stroke:none"
         id="path26" /><path
         d="m 3524.97,646.313 c -33.43,74.386 -66.19,149.445 -99.62,223.82 l -5.46,0 -99.63,-223.82 204.71,0 z m -324.12,-144.657 207.44,459.239 c 2.05,4.089 5.46,7.5 11.6,7.5 l 6.82,0 c 6.14,0 9.55,-3.411 11.6,-7.5 l 206.08,-459.239 c 4.09,-8.879 -1.36,-17.746 -11.6,-17.746 l -27.3,0 c -6.14,0 -10.23,4.094 -11.6,7.512 l -50.49,112.586 -242.24,0 -49.82,-112.586 c -1.36,-3.418 -5.46,-7.512 -11.6,-7.512 l -27.3,0 c -10.23,0 -15.69,8.867 -11.59,17.746"
         style="fill:#11465d;fill-opacity:1;fill-rule:nonzero;stroke:none"
         id="path28" /><path
         d="m 3868.72,658.441 222.133,0 0,148.086 -222.133,0 0,-148.086 z"
         style="fill:#58bbb0;fill-opacity:1;fill-rule:nonzero;stroke:none"
         id="path30" /><path
         d="m 4117.3,658.441 222.129,0 0,148.086 -222.129,0 0,-148.086 z"
         style="fill:#369591;fill-opacity:1;fill-rule:nonzero;stroke:none"
         id="path32" /><path
         d="m 4365.88,658.441 222.133,0 0,148.086 -222.133,0 0,-148.086 z"
         style="fill:#368c9a;fill-opacity:1;fill-rule:nonzero;stroke:none"
         id="path34" /><path
         d="m 3868.72,483.906 222.133,0 0,148.082 -222.133,0 0,-148.082 z"
         style="fill:#58bbb0;fill-opacity:1;fill-rule:nonzero;stroke:none"
         id="path36" /><path
         d="m 4117.3,483.906 222.129,0 0,148.082 -222.129,0 0,-148.082 z"
         style="fill:#369591;fill-opacity:1;fill-rule:nonzero;stroke:none"
         id="path38" /><path
         d="m 4365.88,483.906 222.133,0 0,148.082 -222.133,0 0,-148.082 z"
         style="fill:#368c9a;fill-opacity:1;fill-rule:nonzero;stroke:none"
         id="path40" /><path
         d="m 4614.46,483.906 222.129,0 0,148.082 -222.129,0 0,-148.082 z"
         style="fill:#296188;fill-opacity:1;fill-rule:nonzero;stroke:none"
         id="path42" /><path
         d="m 4863.04,483.906 222.133,0 0,148.082 -222.133,0 0,-148.082 z"
         style="fill:#11465d;fill-opacity:1;fill-rule:nonzero;stroke:none"
         id="path44" /></g></g></svg>
