<?xml version="1.0" encoding="UTF-8" standalone="no"?>
<svg width="362px" height="145px" viewBox="0 0 362 145" version="1.1" xmlns="http://www.w3.org/2000/svg" xmlns:xlink="http://www.w3.org/1999/xlink" xmlns:sketch="http://www.bohemiancoding.com/sketch/ns">
    <!-- Generator: Sketch 3.0.1 (7597) - http://www.bohemiancoding.com/sketch -->
    <title>logo-normal-white</title>
    <description>Created with Sketch.</description>
    <defs></defs>
    <g id="Page-1" stroke="none" stroke-width="1" fill="none" fill-rule="evenodd" sketch:type="MSPage">
        <g id="logo-normal" sketch:type="MSLayerGroup">
            <path d="M197.577,57.992 L203.768,57.992 C216.012,57.992 221.602,49.996 221.602,41.915 C221.602,34.381 215.469,28.274 207.922,28.274 C207.065,28.274 206.204,28.361 205.375,28.506 C203.456,23.291 198.44,19.595 192.557,19.595 C191.788,19.595 191.012,19.653 190.297,19.766 C188.2,12.745 181.69,7.648 173.98,7.648 C166.185,7.648 159.585,12.886 157.579,20.052 C156.749,19.939 155.862,19.88 154.969,19.88 C144.446,19.88 135.903,28.415 135.903,38.934 C135.903,49.648 144.564,57.992 155.142,57.992 L197.577,57.992 L197.577,57.992 Z M209.561,21.085 C220.34,21.914 228.827,30.942 228.827,41.915 C228.827,56.185 217.674,65.24 203.768,65.24 L154.566,65.24 C140.234,65.01 128.652,53.317 128.652,38.934 C128.652,25.126 139.315,13.805 152.85,12.718 C157.094,5.239 165.089,0.396 173.98,0.396 C182.786,0.396 190.694,5.122 194.971,12.487 C200.875,13.175 206.178,16.329 209.561,21.085 L209.561,21.085 Z" id="Fill-1" fill="#56A4CF" sketch:type="MSShapeGroup"></path>
            <path d="M240.874,54.608 C240.842,56.588 240.612,58.218 240.1,59.537 C239.612,60.852 238.981,61.915 238.174,62.686 C237.405,63.491 236.54,64.094 235.651,64.493 C234.733,64.896 233.85,65.154 233.012,65.299 C231.409,65.526 230.805,65.353 229.374,65.353 L229.374,62.201 C230.204,62.201 229.487,62.201 230.317,62.001 C230.897,61.884 231.499,61.602 232.069,61.168 C232.641,60.738 233.127,60.081 233.532,59.193 C233.932,58.332 234.163,57.155 234.163,55.669 L234.163,47.102 C234.163,45.838 234.358,44.751 234.682,43.831 C235.024,42.916 235.426,42.173 235.938,41.571 C236.426,40.968 236.918,40.514 237.428,40.166 C237.918,39.822 238.315,39.564 238.661,39.423 C239.008,39.278 239.18,39.22 239.18,39.22 L239.18,39.106 C239.18,39.106 239.008,39.02 238.661,38.879 C238.315,38.734 237.918,38.48 237.428,38.105 C236.918,37.733 236.426,37.245 235.938,36.642 C235.426,36.04 235.024,35.296 234.682,34.408 C234.358,33.52 234.163,32.46 234.163,31.227 L234.163,23.405 C234.163,21.914 233.932,20.741 233.532,19.88 C233.127,18.992 232.641,18.335 232.069,17.905 C231.499,17.475 230.897,17.189 230.317,17.071 C229.459,16.872 230.233,16.899 229.374,16.899 L229.374,13.723 C229.405,13.723 229.518,13.723 229.778,13.691 C230.032,13.691 230.375,13.665 230.805,13.665 C231.409,13.665 232.155,13.723 233.012,13.836 C233.85,13.977 234.733,14.236 235.651,14.638 C236.54,15.038 237.405,15.64 238.174,16.441 C238.981,17.216 239.612,18.276 240.1,19.567 C240.612,20.885 240.842,22.517 240.874,24.461 L240.874,29.679 C240.874,30.97 241.073,32.03 241.415,32.863 C241.758,33.72 242.192,34.381 242.733,34.893 C243.252,35.382 243.768,35.754 244.286,35.98 C244.801,36.239 245.258,36.388 245.602,36.47 C246.233,36.587 246.922,36.7 246.922,37.588 L246.922,40.855 C246.922,41.739 246.233,41.856 245.602,41.997 C245.258,42.059 244.801,42.204 244.286,42.462 C243.768,42.689 243.252,43.061 242.733,43.55 C242.192,44.035 241.758,44.696 241.415,45.525 C241.073,46.354 240.874,47.387 240.874,48.651 L240.874,54.608" id="Fill-2" fill="#FFFFFF" sketch:type="MSShapeGroup"></path>
            <path d="M116.635,55.152 C116.635,57.131 116.894,58.762 117.381,60.081 C117.871,61.398 118.528,62.428 119.302,63.229 C120.104,64.035 120.965,64.638 121.854,65.037 C122.773,65.439 123.636,65.698 124.494,65.815 C126.07,66.069 126.672,65.897 128.104,65.897 L128.104,62.717 C127.271,62.717 127.991,62.717 127.189,62.545 C126.587,62.428 126.016,62.142 125.437,61.716 C124.837,61.282 124.349,60.624 123.946,59.741 C123.547,58.875 123.344,57.702 123.344,56.212 L123.344,47.646 C123.344,46.385 123.147,45.267 122.799,44.379 C122.486,43.46 122.056,42.717 121.572,42.114 C121.079,41.512 120.565,41.031 120.081,40.714 C119.592,40.37 119.158,40.111 118.846,39.966 C118.5,39.822 118.329,39.764 118.298,39.764 L118.298,39.65 C118.329,39.65 118.5,39.564 118.846,39.423 C119.158,39.251 119.592,38.993 120.081,38.652 C120.565,38.277 121.079,37.788 121.572,37.189 C122.056,36.587 122.486,35.84 122.799,34.956 C123.147,34.037 123.344,32.977 123.344,31.772 L123.344,23.948 C123.344,22.462 123.547,21.285 123.946,20.393 C124.349,19.54 124.837,18.878 125.437,18.448 C126.016,18.018 126.587,17.732 127.189,17.616 C128.049,17.42 127.243,17.42 128.104,17.42 L128.104,14.267 C128.104,14.267 127.991,14.267 127.709,14.236 C127.474,14.208 127.125,14.208 126.672,14.208 C126.07,14.208 125.354,14.267 124.494,14.38 C123.636,14.521 122.773,14.779 121.854,15.182 C120.965,15.585 120.104,16.184 119.302,16.958 C118.528,17.76 117.871,18.82 117.381,20.107 C116.894,21.429 116.635,23.064 116.635,25.008 L116.635,30.222 C116.607,31.486 116.436,32.578 116.09,33.406 C115.719,34.263 115.286,34.925 114.773,35.437 C114.256,35.926 113.741,36.302 113.224,36.532 C112.681,36.786 112.25,36.931 111.905,37.013 C111.272,37.131 110.557,37.245 110.557,38.132 L110.557,41.398 C110.557,42.29 111.272,42.4 111.905,42.517 C112.25,42.603 112.681,42.748 113.224,43.006 C113.741,43.233 114.256,43.604 114.773,44.094 C115.286,44.582 115.719,45.24 116.09,46.069 C116.436,46.898 116.607,47.931 116.635,49.194 L116.635,55.152" id="Fill-3" fill="#FFFFFF" sketch:type="MSShapeGroup"></path>
            <path d="M89.112,108.961 L89.112,112.916 C89.112,115.177 88.795,117.039 88.134,118.474 C87.509,119.937 86.62,121.052 85.444,121.827 C84.293,122.601 82.888,123.149 81.315,123.43 C79.822,123.689 78.246,123.83 76.497,123.861 L71.791,123.861 C70.047,123.83 68.466,123.689 66.976,123.43 C65.399,123.149 63.999,122.601 62.849,121.827 C61.672,121.052 60.783,119.937 60.154,118.474 C59.493,117.039 59.18,115.177 59.18,112.916 L59.18,105.034 C59.18,102.773 59.493,100.911 60.154,99.475 C60.783,98.016 61.672,96.901 62.849,96.126 C63.999,95.352 65.399,94.808 66.976,94.523 C68.466,94.265 70.047,94.12 71.791,94.088 L76.497,94.088 C78.246,94.12 79.822,94.265 81.315,94.523 C82.888,94.808 84.293,95.352 85.444,96.126 C86.62,96.901 87.509,98.016 88.134,99.475 C88.795,100.911 89.112,102.773 89.112,105.034 L89.112,108.961 L89.112,108.961 Z M92.609,91.824 C90.662,90.654 88.365,89.848 85.728,89.364 C83.064,88.902 80.165,88.675 77.014,88.707 L71.279,88.707 C68.095,88.675 65.231,88.902 62.56,89.364 C59.927,89.848 57.627,90.654 55.679,91.824 C53.731,93 52.209,94.605 51.149,96.698 C50.062,98.787 49.518,101.423 49.518,104.666 L49.518,113.288 C49.518,116.527 50.062,119.164 51.149,121.255 C52.209,123.348 53.731,124.949 55.679,126.125 C57.627,127.298 59.927,128.101 62.56,128.586 C65.231,129.047 68.095,129.279 71.279,129.248 L77.014,129.248 C80.165,129.279 83.064,129.047 85.728,128.586 C88.365,128.101 90.662,127.298 92.609,126.125 C94.558,124.949 96.079,123.348 97.14,121.255 C98.226,119.164 98.743,116.527 98.774,113.288 L98.774,104.666 C98.743,101.423 98.226,98.787 97.14,96.698 C96.079,94.605 94.558,93 92.609,91.824 L92.609,91.824 Z" id="Fill-4" fill="#FFFFFF" sketch:type="MSShapeGroup"></path>
            <path d="M141.725,108.961 L141.725,113.056 C141.693,115.263 141.38,117.07 140.75,118.474 C140.12,119.937 139.229,121.052 138.055,121.827 C136.877,122.601 135.506,123.149 133.897,123.43 C132.435,123.689 130.826,123.83 129.077,123.861 L124.407,123.861 C122.655,123.83 121.051,123.689 119.592,123.43 C118.016,123.149 116.607,122.601 115.462,121.827 C114.287,121.052 113.4,119.937 112.766,118.474 C112.109,117.039 111.792,115.177 111.792,112.916 L111.792,105.034 C111.792,102.773 112.109,100.911 112.766,99.475 C113.4,98.016 114.287,96.901 115.462,96.126 C116.607,95.352 118.016,94.808 119.592,94.523 C121.051,94.265 122.655,94.12 124.407,94.088 L129.077,94.088 C130.826,94.12 132.435,94.265 133.897,94.523 C135.506,94.808 136.877,95.352 138.055,96.126 C139.229,96.901 140.12,98.016 140.75,99.475 C141.38,100.911 141.725,102.773 141.725,105.034 L141.725,108.961 L141.725,108.961 Z M149.036,77.956 L144.048,77.956 C142.784,77.956 141.751,78.962 141.725,80.221 L141.725,90.22 C140.66,89.875 139.515,89.59 138.341,89.364 C135.678,88.902 132.778,88.675 129.625,88.707 L123.89,88.707 C120.706,88.675 117.812,88.902 115.172,89.364 C112.535,89.848 110.243,90.654 108.295,91.824 C106.343,93 104.825,94.605 103.762,96.698 C102.67,98.787 102.13,101.423 102.13,104.666 L102.13,113.288 C102.13,116.527 102.67,119.164 103.762,121.255 C104.825,123.348 106.343,124.949 108.295,126.125 C110.243,127.298 112.535,128.101 115.172,128.586 C117.812,129.047 120.706,129.279 123.89,129.248 L129.625,129.248 C132.778,129.279 135.678,129.047 138.341,128.586 C140.98,128.101 143.27,127.298 145.222,126.125 C147.169,124.949 148.69,123.348 149.751,121.255 C150.757,119.308 151.3,116.839 151.354,113.894 C151.387,113.832 151.387,113.777 151.387,113.691 L151.387,80.281 C151.387,78.994 150.33,77.956 149.036,77.956 L149.036,77.956 Z" id="Fill-5" fill="#FFFFFF" sketch:type="MSShapeGroup"></path>
            <path d="M9.662,105.034 C9.662,102.773 9.979,100.911 10.636,99.475 C11.269,98.016 12.157,96.901 13.331,96.126 C14.477,95.352 15.885,94.808 17.493,94.523 C18.956,94.265 20.533,94.12 22.277,94.088 L25.316,94.088 C27.069,94.12 28.672,94.265 30.136,94.523 C31.739,94.808 33.12,95.352 34.263,96.126 C35.612,97.014 36.902,98.505 37.016,100.167 C37.016,101.455 38.077,102.484 39.368,102.484 L44.355,102.484 C45.646,102.484 46.705,101.455 46.705,100.167 C46.705,96.698 44.155,93.545 41.288,91.824 C39.309,90.654 37.047,89.848 34.376,89.364 C31.739,88.902 28.614,88.675 25.461,88.707 L21.761,88.707 C18.608,88.675 15.713,88.902 13.045,89.364 C10.409,89.848 8.116,90.654 6.165,91.824 C4.216,93 2.695,94.605 1.635,96.698 C0.543,98.787 0.031,101.423 0,104.666 L0,113.288 C0.031,116.527 0.543,119.164 1.635,121.255 C2.695,123.348 4.216,124.949 6.165,126.125 C8.116,127.298 10.409,128.101 13.045,128.586 C15.713,129.047 18.608,129.279 21.761,129.248 L25.461,129.248 C28.614,129.279 31.739,129.047 34.376,128.586 C37.047,128.101 39.309,127.298 41.288,126.125 C44.155,124.404 46.705,121.255 46.705,117.787 C46.705,116.496 45.646,115.466 44.355,115.466 L39.368,115.466 C38.077,115.466 37.016,116.496 37.016,117.787 C36.902,119.453 35.612,120.935 34.263,121.827 C33.12,122.601 31.739,123.149 30.136,123.43 C28.672,123.689 27.069,123.83 25.316,123.861 L22.277,123.861 C20.533,123.83 18.956,123.689 17.493,123.43 C15.885,123.149 14.477,122.601 13.331,121.827 C12.157,121.052 11.269,119.937 10.636,118.474 C9.979,117.039 9.662,115.177 9.662,112.916 L9.662,105.034" id="Fill-7" fill="#FFFFFF" sketch:type="MSShapeGroup"></path>
            <path d="M194.885,106.269 L164.948,106.269 L164.948,105.034 C164.948,102.773 165.292,100.911 165.922,99.475 C166.557,98.016 167.467,96.901 168.649,96.126 C169.792,95.352 171.199,94.808 172.807,94.523 C174.297,94.265 175.901,94.12 177.65,94.088 L182.18,94.088 C183.928,94.12 185.532,94.265 187.026,94.523 C188.629,94.808 190.038,95.352 191.184,96.126 C192.362,96.901 193.276,98.016 193.903,99.475 C194.536,100.884 194.856,102.687 194.885,104.893 L194.885,106.269 L194.885,106.269 Z M198.497,91.824 C196.547,90.654 194.223,89.848 191.551,89.364 C188.887,88.902 185.989,88.675 182.809,88.707 L177.333,88.707 C174.152,88.675 171.231,88.902 168.56,89.364 C165.891,89.848 163.603,90.654 161.624,91.824 C159.674,93 158.153,94.605 157.094,96.698 C156.003,98.787 155.458,101.423 155.427,104.666 L155.427,113.288 C155.458,116.527 156.003,119.164 157.094,121.255 C158.153,123.348 159.674,124.949 161.624,126.125 C163.603,127.298 165.891,128.101 168.56,128.586 C171.231,129.047 174.152,129.279 177.333,129.248 L182.809,129.248 C185.989,129.279 188.887,129.047 191.551,128.586 C194.223,128.101 196.547,127.298 198.497,126.125 C200.444,124.949 201.993,123.348 203.053,121.255 C203.624,120.165 204.37,118.189 201.362,118.189 L196.17,118.189 C195.053,118.189 194.34,118.501 193.79,118.932 C192.647,119.824 192.389,120.767 190.811,121.827 C189.663,122.601 188.258,123.149 186.649,123.43 C185.165,123.689 183.555,123.83 181.808,123.861 L178.197,123.861 L177.65,123.861 C175.901,123.83 174.297,123.689 172.807,123.43 C171.199,123.149 169.792,122.601 168.649,121.827 C167.467,121.052 166.557,119.937 165.922,118.474 C165.292,117.039 164.948,115.177 164.948,112.916 L164.948,111.683 L201.993,111.683 C203.483,111.683 204.69,110.451 204.69,108.961 L204.69,104.294 C204.69,101.827 204.198,98.932 203.053,96.698 C201.993,94.605 200.444,93 198.497,91.824 L198.497,91.824 Z" id="Fill-9" fill="#FFFFFF" sketch:type="MSShapeGroup"></path>
            <path d="M255.18,93.205 C253.942,91.968 252.254,90.998 250.129,90.279 C240.151,86.872 226.19,90.02 219.024,97.445 L219.024,91.225 C219.024,89.938 217.963,88.878 216.672,88.878 L211.686,88.878 C210.395,88.878 209.362,89.938 209.362,91.225 L209.362,126.927 C209.362,128.214 210.395,129.248 211.686,129.248 L216.672,129.248 C217.963,129.248 219.024,128.214 219.024,126.927 L219.024,109.419 C219.024,99.792 236.598,91.824 245.2,96.298 C246.26,96.842 247.094,97.499 247.633,98.301 C248.213,99.077 248.584,99.964 248.756,100.938 C248.959,101.916 249.042,103 249.042,104.15 L249.042,126.927 C249.042,128.214 250.075,129.248 251.366,129.248 L256.381,129.248 C257.643,129.248 258.704,128.214 258.704,126.927 L258.704,102.546 C258.704,100.74 258.446,99.048 257.903,97.468 C257.327,95.869 256.44,94.433 255.18,93.205" id="Fill-10" fill="#FFFFFF" sketch:type="MSShapeGroup"></path>
            <path d="M359.684,88.878 L354.643,88.878 C353.319,88.878 352.264,89.938 352.264,91.256 L352.264,108.961 C352.264,118.732 335.663,126.783 326.944,122.252 C325.883,121.714 325.02,121.025 324.479,120.253 C323.903,119.453 323.532,118.56 323.329,117.559 C323.157,116.554 323.04,115.466 323.071,114.292 L323.071,91.256 C323.071,89.938 322.014,88.878 320.688,88.878 L315.649,88.878 C314.329,88.878 313.268,89.938 313.268,91.256 L313.268,115.951 C313.268,117.759 313.553,119.476 314.096,121.08 C314.641,122.683 315.559,124.147 316.848,125.382 C318.114,126.638 319.809,127.644 321.956,128.359 C331.704,131.684 345.52,128.101 352.264,121.08 L352.264,125.61 C352.292,126.783 352.202,127.902 352.004,128.935 C351.803,129.995 351.426,130.997 350.856,131.942 C350.311,132.889 349.448,133.804 348.387,134.693 C344.174,138.072 335.889,139.164 331.297,139.045 L329.637,139.045 C328.946,139.045 328.379,139.622 328.379,140.305 L328.379,143.717 C328.379,144.432 328.946,144.98 329.637,144.98 L331.247,144.98 C337.235,145.175 345.29,144.001 351.631,140.567 C357.165,137.587 362.067,131.942 362.067,125.324 L362.067,100.97 L362.067,91.256 C362.067,89.938 361.002,88.878 359.684,88.878" id="Fill-12" fill="#FFFFFF" sketch:type="MSShapeGroup"></path>
            <path d="M308.852,88.878 L304.522,88.878 C303.231,88.878 302.202,89.848 301.487,91.225 L286.172,119.621 C285.542,120.625 285.198,121.138 284.852,121.194 C284.508,121.138 284.133,120.625 283.536,119.621 L268.225,91.225 C267.477,89.848 266.446,88.878 265.186,88.878 L260.829,88.878 C257.385,88.878 257.704,90.74 258.676,92.372 L276.678,125.782 L277.489,126.927 C278.344,128.214 280.122,129.248 281.415,129.248 L288.295,129.248 C289.555,129.248 291.334,128.214 292.223,126.927 L292.999,125.782 L311,92.372 C312.004,90.74 312.293,88.878 308.852,88.878" id="Fill-14" fill="#FFFFFF" sketch:type="MSShapeGroup"></path>
        </g>
    </g>
</svg>